{
  "accessors": [
    {
      "bufferView": 2,
      "componentType": 5126,
      "count": 21303,
      "max": [
        1.7027711868286133,
        1.5424978733062744,
        5.648470878601074
      ],
      "min": [
        -1.585509181022644,
        -1.9409165382385254,
        -0.9678242206573486
      ],
      "type": "VEC3"
    },
    {
      "bufferView": 2,
      "byteOffset": 255636,
      "componentType": 5126,
      "count": 21303,
      "max": [
        0.9999526143074036,
        0.9999821186065674,
        0.9998997449874878
      ],
      "min": [
        -0.9999972581863403,
        -0.9999916553497314,
        -0.9996734857559204
      ],
      "type": "VEC3"
    },
    {
      "bufferView": 3,
      "componentType": 5126,
      "count": 21303,
      "max": [
        0.9999178647994995,
        0.9999740719795227,
        0.9999926686286926,
        1.0
      ],
      "min": [
        -0.9670974016189575,
        -0.9999691843986511,
        -0.9999953508377075,
        1.0
      ],
      "type": "VEC4"
    },
    {
      "bufferView": 1,
      "componentType": 5126,
      "count": 21303,
      "max": [
        0.9917293787002563,
        0.9953944683074951
      ],
      "min": [
        0.0020555031951516867,
        0.0019898959435522556
      ],
      "type": "VEC2"
    },
    {
      "bufferView": 0,
      "componentType": 5125,
      "count": 123336,
      "type": "SCALAR"
    }
  ],
  "asset": {
    "extras": {
      "author": "Kwinto (https://sketchfab.com/kwinto)",
      "license": "CC-BY-4.0 (http://creativecommons.org/licenses/by/4.0/)",
      "source": "https://sketchfab.com/3d-models/free-cliff-rock-75fb6b34dc0d46259dedc8c7cd94e7b7",
      "title": "Free_cliff_rock"
    },
    "generator": "Sketchfab-16.14.0",
    "version": "2.0"
  },
  "bufferViews": [
    {
      "buffer": 0,
      "byteLength": 493344,
      "name": "floatBufferViews",
      "target": 34963
    },
    {
      "buffer": 0,
      "byteLength": 170424,
      "byteOffset": 493344,
      "byteStride": 8,
      "name": "floatBufferViews",
      "target": 34962
    },
    {
      "buffer": 0,
      "byteLength": 511272,
      "byteOffset": 663768,
      "byteStride": 12,
      "name": "floatBufferViews",
      "target": 34962
    },
    {
      "buffer": 0,
      "byteLength": 340848,
      "byteOffset": 1175040,
      "byteStride": 16,
      "name": "floatBufferViews",
      "target": 34962
    }
  ],
  "buffers": [
    {
      "byteLength": 1515888,
      "uri": "scene.bin"
    }
  ],
  "images": [
    {
      "uri": "textures/rock2_baseColor.png"
    },
    {
      "uri": "textures/rock2_metallicRoughness.png"
    },
    {
      "uri": "textures/rock2_normal.png"
    }
  ],
  "materials": [
    {
      "doubleSided": true,
      "name": "rock2",
      "normalTexture": {
        "index": 2
      },
      "occlusionTexture": {
        "index": 1
      },
      "pbrMetallicRoughness": {
        "baseColorTexture": {
          "index": 0
        },
        "metallicFactor": 0.0,
        "metallicRoughnessTexture": {
          "index": 1
        }
      }
    }
  ],
  "meshes": [
    {
      "name": "rock2_lp_rock2_0",
      "primitives": [
        {
          "attributes": {
            "NORMAL": 1,
            "POSITION": 0,
            "TANGENT": 2,
            "TEXCOORD_0": 3
          },
          "indices": 4,
          "material": 0,
          "mode": 4
        }
      ]
    }
  ],
  "nodes": [
    {
      "children": [
        1
      ],
      "matrix": [
        1.0,
        0.0,
        0.0,
        0.0,
        0.0,
        2.220446049250313e-16,
        -1.0,
        0.0,
        0.0,
        1.0,
        2.220446049250313e-16,
        0.0,
        0.0,
        0.0,
        0.0,
        1.0
      ],
      "name": "Sketchfab_model"
    },
    {
      "children": [
        2
      ],
      "matrix": [
        0.009999999776482582,
        0.0,
        0.0,
        0.0,
        0.0,
        0.0,
        0.009999999776482582,
        0.0,
        0.0,
        -0.009999999776482582,
        0.0,
        0.0,
        0.0,
        0.0,
        0.0,
        1.0
      ],
      "name": "cliff_rock1.fbx"
    },
    {
      "children": [
        3
      ],
      "name": "RootNode"
    },
    {
      "children": [
        4
      ],
      "matrix": [
        572.8332626140385,
        0.0,
        -284.3402748245758,
        0.0,
        -284.3402748245755,
        -2.795435971758738e-05,
        -572.833262614038,
        0.0,
        -1.242890866169931e-05,
        639.5211791992181,
        -2.503933813189961e-05,
        0.0,
        -73.09375,
        584.7648315429688,
        -59.814979553222656,
        1.0
      ],
      "name": "rock2_lp"
    },
    {
      "mesh": 0,
      "name": "rock2_lp_rock2_0"
    }
  ],
  "samplers": [
    {
      "magFilter": 9729,
      "minFilter": 9987,
      "wrapS": 10497,
      "wrapT": 10497
    }
  ],
  "scene": 0,
  "scenes": [
    {
      "name": "Sketchfab_Scene",
      "nodes": [
        0
      ]
    }
  ],
  "textures": [
    {
      "sampler": 0,
      "source": 0
    },
    {
      "sampler": 0,
      "source": 1
    },
    {
      "sampler": 0,
      "source": 2
    }
  ]
}
