{
  "asset": {
    "version": "2.0"
  },
  "scene": 0,
  "scenes": [
    {
      "nodes": [0]
    }
  ],
  "nodes": [
    {
      "mesh": 0,
      "name": "TexturedQuad"
    }
  ],
  "meshes": [
    {
      "primitives": [
        {
          "attributes": {
            "POSITION": 0,
            "NORMAL": 1,
            "TEXCOORD_0": 2
          },
          "indices": 3,
          "material": 0,
          "mode": 4
        }
      ]
    }
  ],
  "materials": [
    {
      "name": "checker_quad",
      "doubleSided": true,
      "pbrMetallicRoughness": {
        "baseColorTexture": {
          "index": 0
        },
        "metallicFactor": 0.0,
        "roughnessFactor": 1.0
      }
    }
  ],
  "textures": [
    {
      "sampler": 0,
      "source": 0
    }
  ],
  "samplers": [
    {
      "magFilter": 9729,
      "minFilter": 9987,
      "wrapS": 10497,
      "wrapT": 10497
    }
  ],
  "images": [
    {
      "uri": "texture/checker.ppm"
    }
  ],
  "buffers": [
    {
      "byteLength": 140,
      "uri": "data:application/octet-stream;base64,"
    }
  ],
  "bufferViews": [
    {
      "buffer": 0,
      "byteOffset": 0,
      "byteLength": 12,
      "target": 34963
    },
    {
      "buffer": 0,
      "byteOffset": 12,
      "byteLength": 48,
      "byteStride": 12,
      "target": 34962
    },
    {
      "buffer": 0,
      "byteOffset": 60,
      "byteLength": 48,
      "byteStride": 12,
      "target": 34962
    },
    {
      "buffer": 0,
      "byteOffset": 108,
      "byteLength": 32,
      "byteStride": 8,
      "target": 34962
    }
  ],
  "accessors": [
    {
      "bufferView": 1,
      "componentType": 5126,
      "count": 4,
      "type": "VEC3",
      "min": [-0.5, -0.5, 0.0],
      "max": [0.5, 0.5, 0.0]
    },
    {
      "bufferView": 2,
      "componentType": 5126,
      "count": 4,
      "type": "VEC3",
      "min": [0.0, 0.0, 1.0],
      "max": [0.0, 0.0, 1.0]
    },
    {
      "bufferView": 3,
      "componentType": 5126,
      "count": 4,
      "type": "VEC2",
      "min": [0.0, 0.0],
      "max": [1.0, 1.0]
    },
    {
      "bufferView": 0,
      "componentType": 5123,
      "count": 6,
      "type": "SCALAR",
      "min": [0],
      "max": [3]
    }
  ]
}
